<svg xmlns="http://www.w3.org/2000/svg" xmlns:xlink="http://www.w3.org/1999/xlink" viewBox="0 0 256 256"><defs><style>.cls-1{fill:#1a1c34;}.cls-2{fill:#00a7cf;}.cls-3{fill:#fff;}.cls-4{isolation:isolate;}.cls-5{fill:none;stroke:#fff;stroke-miterlimit:10;stroke-width:0.75px;}</style></defs><title> icon-256x256</title><g id="Слой_2" data-name="Слой 2"><rect class="cls-1" x="0.14" y="-1.82" width="255.86" height="260"/></g><g id="Слой_1" data-name="Слой 1"><g id="Слой-1"><path class="cls-2" d="M37.42,89.73a14.4,14.4,0,0,0-.49,5.38.2.2,0,0,1,0,.11.3.3,0,0,1-.21.15A30,30,0,0,0,29.82,97H29.7a.76.76,0,0,1-.23-.13s-1.15-1.53-2.53-3.53a1.83,1.83,0,0,0-.93-1c-.73-.32-1.83-.17-5.06,2.11a46.53,46.53,0,0,0-4.84,3.74A29.42,29.42,0,0,0,10,104.71a1.72,1.72,0,0,0-.25,1.2,1.76,1.76,0,0,0,.65,1.08l4.68,2.76a.26.26,0,0,1,.12.31,21.86,21.86,0,0,0-1.85,6.21.31.31,0,0,1-.28.23l-5.24.23a1.93,1.93,0,0,0-1.62,1.33,21.68,21.68,0,0,0,0,6A23.4,23.4,0,0,0,7.85,130a26.68,26.68,0,0,0,1.59,3.16,8.69,8.69,0,0,0,1.88,2.53,2.38,2.38,0,0,0,1.47.84,2.34,2.34,0,0,0,1.47-.36l4-2.11h.14a.49.49,0,0,1,.24,0,25,25,0,0,0,5.1,4.55v.34a2.12,2.12,0,0,1-.45.78,10.36,10.36,0,0,1-1.22,1.43,14.49,14.49,0,0,0-.93,1.2,3.76,3.76,0,0,0-.87,1.75c0,1.47,3.42,2.71,5.9,3.62q2.09.72,4.23,1.26a44.08,44.08,0,0,0,8.49,1.28c2,0,3,0,3.58-.63s.47-1.09.54-2.27,0-2.7,0-3.07.07-.44.12-.65a.26.26,0,0,1,.26-.26,29,29,0,0,0,6.9-1.66.37.37,0,0,1,.25.12c0,.13,1,1.5,2.2,3.37a2.91,2.91,0,0,0,1.76,1.56c.68.15,1.31-.13,2.81-1,1.17-.65,2.31-1.35,3.41-2.1a34.14,34.14,0,0,0,5.36-4.8c2.57-2.8,4.89-5.31,4.05-6.65a5.11,5.11,0,0,0-1.45-1.2,17.69,17.69,0,0,0-1.88-.85c-1.07-.44-1.73-.67-2-1.26a1.61,1.61,0,0,1,0-.31c-.24-.93,1.38-3.25,1.85-6.21a.32.32,0,0,1,.28-.24l4.68-.1a2.91,2.91,0,0,0,1.94-.42c.93-.7.86-2.11.75-3.22a33.56,33.56,0,0,0-1.41-7.14c-1.85-5.47-3-8.67-5.24-8.94a4.56,4.56,0,0,0-2.13.35L61.8,104.8h-.14a.31.31,0,0,1-.23,0,26.2,26.2,0,0,0-5.06-4.55.25.25,0,0,1,0-.34l2.51-3.62a2,2,0,0,0,.6-1.39c0-.63-.6-1.47-4.95-3.13a36.39,36.39,0,0,0-6-1.92,39.56,39.56,0,0,0-7.73-1.1C39.22,88.75,37.93,89,37.42,89.73ZM22,119.45c-.06-9,8-16.32,18-16.38s18.13,7.18,18.2,16.17v.21c-.05,8.91-8.07,16.12-18,16.16H40C30.11,135.61,22,128.4,22,119.45Z"/><path class="cls-3" d="M44.54,100.89a4,4,0,0,1-1.19,2.81,4.87,4.87,0,0,1-3.4,1.17,4.09,4.09,0,0,1-2.93-1,3.49,3.49,0,0,1-1-2.45,3.62,3.62,0,0,1,1.25-2.76,4.7,4.7,0,0,1,3.4-1.13,3.85,3.85,0,0,1,2.87,1,3.26,3.26,0,0,1,1,2.36M43,140.1H36.37c.36-4.2.53-8.95.53-14.32a78.15,78.15,0,0,0-1.25-15.33l7.28-.82c-.3,4.34-.42,9.71-.42,16.05,0,5.11.18,9.92.48,14.42"/><g class="cls-4"><path class="cls-3" d="M78.42,125.69l10.32-.64a7.83,7.83,0,0,0,1.36,3.83A5.75,5.75,0,0,0,94.88,131a5.34,5.34,0,0,0,3.58-1.08,3.27,3.27,0,0,0,1.26-2.53,3.22,3.22,0,0,0-1.2-2.44c-.8-.72-2.65-1.39-5.55-2q-7.12-1.61-10.17-4.26a8.57,8.57,0,0,1-3.06-6.77,9.16,9.16,0,0,1,1.57-5.11A10.38,10.38,0,0,1,86,103a22,22,0,0,1,8.63-1.37q6.72,0,10.25,2.5t4.19,8l-10.21.6a4.76,4.76,0,0,0-5.31-4.52,4.33,4.33,0,0,0-2.85.8,2.44,2.44,0,0,0-1,2,2,2,0,0,0,.79,1.51,9,9,0,0,0,3.64,1.29,45.11,45.11,0,0,1,10.18,3.1,10.67,10.67,0,0,1,4.47,3.88,9.81,9.81,0,0,1,1.4,5.19,11.12,11.12,0,0,1-1.86,6.22,11.72,11.72,0,0,1-5.22,4.32,21.08,21.08,0,0,1-8.44,1.47q-9,0-12.4-3.44A13.68,13.68,0,0,1,78.42,125.69Z"/><path class="cls-3" d="M112.08,102.22h10.3l3.7,19.64,5.43-19.64h10.26l5.43,19.61,3.71-19.61h10.24l-7.73,35.08H142.79l-6.15-22.09-6.12,22.09H119.89Z"/><path class="cls-3" d="M165.12,102.22H176V137.3H165.12Z"/><path class="cls-3" d="M183.71,102.22h18c3.92,0,6.86.94,8.81,2.8s2.93,4.52,2.93,8-1.06,6.31-3.19,8.3-5.38,3-9.75,3H194.6v13H183.71Zm10.89,15h2.65c2.09,0,3.56-.37,4.41-1.09a3.53,3.53,0,0,0,1.26-2.79,3.88,3.88,0,0,0-1.1-2.8c-.73-.76-2.11-1.15-4.14-1.15H194.6Z"/><path class="cls-3" d="M219.12,102.22h29v7.49H230v5.58h16.87v7.15H230v6.91h18.71v8H219.12Z"/></g></g></g><g id="Слой_3" data-name="Слой 3"><path class="cls-3" d="M82.12,157.08l-.81,2.42h-1l2.63-7.69h1.21l2.64,7.69H85.69l-.83-2.42Zm2.54-.78-.76-2.21c-.17-.5-.29-1-.4-1.41h0c-.11.46-.24.93-.39,1.4l-.75,2.22Z"/><path class="cls-3" d="M91.69,159.29a3.72,3.72,0,0,1-1.6.32,2.63,2.63,0,0,1-2.77-2.82,2.81,2.81,0,0,1,3-2.93,3.53,3.53,0,0,1,1.4.28l-.23.78a2.32,2.32,0,0,0-1.17-.26,2.08,2.08,0,0,0,0,4.15,2.93,2.93,0,0,0,1.24-.27Z"/><path class="cls-3" d="M96.76,159.29a3.67,3.67,0,0,1-1.59.32,2.63,2.63,0,0,1-2.77-2.82,2.81,2.81,0,0,1,3-2.93,3.58,3.58,0,0,1,1.41.28l-.23.78a2.34,2.34,0,0,0-1.18-.26,2.08,2.08,0,0,0,0,4.15,3,3,0,0,0,1.24-.27Z"/><path class="cls-3" d="M98.44,156.92a1.78,1.78,0,0,0,1.91,1.92,3.68,3.68,0,0,0,1.54-.29l.17.72a4.57,4.57,0,0,1-1.85.34,2.58,2.58,0,0,1-2.74-2.78,2.69,2.69,0,0,1,2.61-3,2.34,2.34,0,0,1,2.3,2.6,4.41,4.41,0,0,1,0,.47Zm3-.72a1.42,1.42,0,0,0-1.4-1.63,1.67,1.67,0,0,0-1.55,1.63Z"/><path class="cls-3" d="M103.63,155.78c0-.71,0-1.28,0-1.81h.91l.05.95h0a2.19,2.19,0,0,1,2-1.07c1.34,0,2.35,1.13,2.35,2.81,0,2-1.22,3-2.53,3a2,2,0,0,1-1.71-.86h0v3h-1Zm1,1.47a1.77,1.77,0,0,0,.05.41,1.55,1.55,0,0,0,1.51,1.18c1.07,0,1.69-.87,1.69-2.14,0-1.11-.58-2-1.65-2a1.61,1.61,0,0,0-1.53,1.24,1.41,1.41,0,0,0-.07.41Z"/><path class="cls-3" d="M111.38,152.39V154h1.45v.77h-1.45v3c0,.68.2,1.07.76,1.07a2,2,0,0,0,.59-.07l0,.76a2.7,2.7,0,0,1-.89.13,1.41,1.41,0,0,1-1.09-.42,2,2,0,0,1-.39-1.44v-3h-.87V154h.87v-1.32Z"/><path class="cls-3" d="M120.37,159.29a3.72,3.72,0,0,1-1.6.32,2.63,2.63,0,0,1-2.77-2.82,2.81,2.81,0,0,1,3-2.93,3.57,3.57,0,0,1,1.4.28l-.23.78a2.32,2.32,0,0,0-1.17-.26,2.08,2.08,0,0,0,0,4.15,2.93,2.93,0,0,0,1.24-.27Z"/><path class="cls-3" d="M121.55,155.7c0-.65,0-1.21,0-1.73h.89l0,1.09h0a1.66,1.66,0,0,1,1.54-1.21,1.2,1.2,0,0,1,.28,0v1a1.65,1.65,0,0,0-.34,0,1.42,1.42,0,0,0-1.36,1.28,3.3,3.3,0,0,0,0,.47v2.95h-1Z"/><path class="cls-3" d="M126,154l1.22,3.27c.12.36.26.8.35,1.13h0c.1-.33.21-.76.35-1.16L129,154h1.07l-1.51,3.94c-.73,1.9-1.22,2.87-1.91,3.46a2.82,2.82,0,0,1-1.24.65l-.25-.84a2.59,2.59,0,0,0,.88-.5,2.94,2.94,0,0,0,.85-1.11.72.72,0,0,0,.08-.24.81.81,0,0,0-.07-.27l-2-5.09Z"/><path class="cls-3" d="M131,155.78c0-.71,0-1.28-.05-1.81h.91l0,.95h0a2.19,2.19,0,0,1,2-1.07c1.34,0,2.35,1.13,2.35,2.81,0,2-1.22,3-2.53,3a2,2,0,0,1-1.71-.86h0v3h-1Zm1,1.47a1.77,1.77,0,0,0,.05.41,1.55,1.55,0,0,0,1.51,1.18c1.07,0,1.69-.87,1.69-2.14,0-1.11-.58-2-1.65-2a1.61,1.61,0,0,0-1.53,1.24,1.41,1.41,0,0,0-.07.41Z"/><path class="cls-3" d="M138.75,152.39V154h1.45v.77h-1.45v3c0,.68.2,1.07.76,1.07a2,2,0,0,0,.59-.07l0,.76a2.7,2.7,0,0,1-.89.13,1.41,1.41,0,0,1-1.09-.42,2,2,0,0,1-.4-1.44v-3h-.86V154h.86v-1.32Z"/><path class="cls-3" d="M146.3,156.69a2.71,2.71,0,0,1-2.77,2.93,2.63,2.63,0,0,1-2.66-2.84,2.7,2.7,0,0,1,2.75-2.93A2.62,2.62,0,0,1,146.3,156.69Zm-4.41.06c0,1.21.7,2.12,1.69,2.12s1.69-.9,1.69-2.15c0-.93-.47-2.12-1.67-2.12S141.89,155.7,141.89,156.75Z"/><path class="cls-3" d="M151.54,159.29a3.72,3.72,0,0,1-1.6.32,2.63,2.63,0,0,1-2.77-2.82,2.81,2.81,0,0,1,3-2.93,3.49,3.49,0,0,1,1.4.28l-.23.78a2.32,2.32,0,0,0-1.17-.26,2.08,2.08,0,0,0,0,4.15,3,3,0,0,0,1.24-.27Z"/><path class="cls-3" d="M157.37,158c0,.57,0,1.07,0,1.51h-.9l-.06-.9h0a2.1,2.1,0,0,1-1.84,1c-.87,0-1.91-.48-1.91-2.42V154h1V157c0,1.05.32,1.76,1.24,1.76a1.46,1.46,0,0,0,1.33-.91,1.42,1.42,0,0,0,.09-.52V154h1Z"/><path class="cls-3" d="M159.05,155.7c0-.65,0-1.21-.05-1.73h.89l0,1.09H160a1.66,1.66,0,0,1,1.54-1.21,1.2,1.2,0,0,1,.28,0v1a1.65,1.65,0,0,0-.34,0,1.42,1.42,0,0,0-1.36,1.28,3.3,3.3,0,0,0,0,.47v2.95h-1Z"/><path class="cls-3" d="M162.85,155.7c0-.65,0-1.21,0-1.73h.89l0,1.09h.05a1.66,1.66,0,0,1,1.54-1.21,1.36,1.36,0,0,1,.29,0v1a1.83,1.83,0,0,0-.35,0,1.4,1.4,0,0,0-1.35,1.28,2.26,2.26,0,0,0-.05.47v2.95h-1Z"/><path class="cls-3" d="M167.05,156.92a1.78,1.78,0,0,0,1.91,1.92,3.68,3.68,0,0,0,1.54-.29l.17.72a4.49,4.49,0,0,1-1.85.34,2.57,2.57,0,0,1-2.73-2.78,2.69,2.69,0,0,1,2.61-3,2.34,2.34,0,0,1,2.29,2.6,4.41,4.41,0,0,1,0,.47Zm3-.72a1.43,1.43,0,0,0-1.4-1.63,1.67,1.67,0,0,0-1.56,1.63Z"/><path class="cls-3" d="M172.25,155.47c0-.57,0-1-.05-1.5h.9l.05.92h0a2,2,0,0,1,1.83-1c.77,0,2,.45,2,2.35v3.3h-1v-3.19c0-.89-.34-1.63-1.29-1.63a1.42,1.42,0,0,0-1.35,1,1.33,1.33,0,0,0-.07.47v3.32h-1Z"/><path class="cls-3" d="M182.58,159.29a3.67,3.67,0,0,1-1.59.32,2.63,2.63,0,0,1-2.77-2.82,2.81,2.81,0,0,1,3-2.93,3.58,3.58,0,0,1,1.41.28l-.23.78a2.36,2.36,0,0,0-1.18-.26,2.08,2.08,0,0,0,0,4.15,3,3,0,0,0,1.24-.27Z"/><path class="cls-3" d="M184.89,152.42a.63.63,0,0,1-1.25,0,.62.62,0,0,1,.63-.63A.6.6,0,0,1,184.89,152.42Zm-1.13,7.08V154h1v5.53Z"/><path class="cls-3" d="M187,156.92a1.78,1.78,0,0,0,1.91,1.92,3.65,3.65,0,0,0,1.54-.29l.17.72a4.49,4.49,0,0,1-1.85.34,2.57,2.57,0,0,1-2.73-2.78,2.69,2.69,0,0,1,2.61-3,2.35,2.35,0,0,1,2.3,2.6,3.93,3.93,0,0,1,0,.47Zm3-.72a1.43,1.43,0,0,0-1.4-1.63A1.66,1.66,0,0,0,187,156.2Z"/><path class="cls-3" d="M192.07,158.47a2.71,2.71,0,0,0,1.33.4c.74,0,1.08-.37,1.08-.82s-.29-.74-1-1c-1-.35-1.47-.9-1.47-1.56a1.71,1.71,0,0,1,1.91-1.62,2.81,2.81,0,0,1,1.37.34l-.25.73a2.15,2.15,0,0,0-1.14-.32c-.6,0-.93.34-.93.75s.33.67,1.06.94c1,.37,1.46.85,1.46,1.67s-.76,1.65-2.08,1.65a3.15,3.15,0,0,1-1.56-.38Z"/><path class="cls-3" d="M204.06,155.7c0-.65,0-1.21-.05-1.73h.89l0,1.09h0a1.66,1.66,0,0,1,1.54-1.21,1.36,1.36,0,0,1,.29,0v1a1.83,1.83,0,0,0-.35,0,1.4,1.4,0,0,0-1.35,1.28,2.26,2.26,0,0,0-.05.47v2.95h-1Z"/><path class="cls-3" d="M208.26,156.92a1.78,1.78,0,0,0,1.91,1.92,3.68,3.68,0,0,0,1.54-.29l.17.72a4.49,4.49,0,0,1-1.85.34,2.57,2.57,0,0,1-2.73-2.78,2.69,2.69,0,0,1,2.61-3,2.34,2.34,0,0,1,2.29,2.6,4.41,4.41,0,0,1,0,.47Zm3-.72a1.43,1.43,0,0,0-1.4-1.63,1.67,1.67,0,0,0-1.56,1.63Z"/><path class="cls-3" d="M217.42,159.29a3.72,3.72,0,0,1-1.6.32,2.63,2.63,0,0,1-2.77-2.82,2.81,2.81,0,0,1,3-2.93,3.49,3.49,0,0,1,1.4.28l-.23.78a2.32,2.32,0,0,0-1.17-.26,2.08,2.08,0,0,0,0,4.15,3,3,0,0,0,1.25-.27Z"/><path class="cls-3" d="M219.09,156.92a1.78,1.78,0,0,0,1.91,1.92,3.65,3.65,0,0,0,1.54-.29l.17.72a4.49,4.49,0,0,1-1.85.34,2.57,2.57,0,0,1-2.73-2.78,2.69,2.69,0,0,1,2.61-3,2.35,2.35,0,0,1,2.3,2.6,3.93,3.93,0,0,1,0,.47Zm3-.72a1.43,1.43,0,0,0-1.4-1.63,1.66,1.66,0,0,0-1.55,1.63Z"/><path class="cls-3" d="M225.41,152.42a.63.63,0,0,1-1.25,0,.62.62,0,0,1,.63-.63A.6.6,0,0,1,225.41,152.42Zm-1.12,7.08V154h1v5.53Z"/><path class="cls-3" d="M227.36,154l1.1,3.11a14,14,0,0,1,.44,1.41h0a14.54,14.54,0,0,1,.47-1.41l1.08-3.11h1.06l-2.19,5.53h-1L226.28,154Z"/><path class="cls-3" d="M233,156.92a1.77,1.77,0,0,0,1.9,1.92,3.65,3.65,0,0,0,1.54-.29l.18.72a4.59,4.59,0,0,1-1.86.34,2.57,2.57,0,0,1-2.73-2.78,2.69,2.69,0,0,1,2.61-3,2.35,2.35,0,0,1,2.3,2.6,3.93,3.93,0,0,1,0,.47Zm3-.72a1.43,1.43,0,0,0-1.4-1.63A1.67,1.67,0,0,0,233,156.2Z"/><path class="cls-3" d="M82,166.11a.63.63,0,0,1-1.25,0,.62.62,0,0,1,.63-.63A.6.6,0,0,1,82,166.11Zm-1.13,7.08v-5.53h1v5.53Z"/><path class="cls-3" d="M83.52,169.16c0-.57,0-1,0-1.5h.9l.06.92h0a2,2,0,0,1,1.84-1c.77,0,2,.45,2,2.35v3.3h-1V170c0-.89-.33-1.63-1.29-1.63a1.43,1.43,0,0,0-1.35,1,1.29,1.29,0,0,0-.07.47v3.32h-1Z"/><path class="cls-3" d="M89.76,172.16a2.65,2.65,0,0,0,1.33.4c.73,0,1.08-.37,1.08-.82s-.29-.74-1-1c-1-.35-1.47-.9-1.47-1.56a1.71,1.71,0,0,1,1.92-1.62,2.81,2.81,0,0,1,1.37.34l-.25.73a2.15,2.15,0,0,0-1.14-.32c-.6,0-.93.34-.93.75s.33.67,1.06.94c1,.37,1.46.84,1.46,1.67s-.76,1.65-2.08,1.65a3.19,3.19,0,0,1-1.57-.38Z"/><path class="cls-3" d="M95.66,166.08v1.58h1.45v.77H95.66v3c0,.68.19,1.07.76,1.07a2.38,2.38,0,0,0,.58-.07l0,.75a2.52,2.52,0,0,1-.9.14,1.41,1.41,0,0,1-1.09-.42,2,2,0,0,1-.39-1.44v-3h-.86v-.77h.86v-1.32Z"/><path class="cls-3" d="M101.32,173.19l-.08-.7h0a2.09,2.09,0,0,1-1.7.82,1.58,1.58,0,0,1-1.7-1.58c0-1.34,1.19-2.07,3.34-2.06v-.11a1.14,1.14,0,0,0-1.26-1.28,2.79,2.79,0,0,0-1.45.41l-.23-.66a3.43,3.43,0,0,1,1.83-.49c1.7,0,2.11,1.15,2.11,2.26v2.06a7.73,7.73,0,0,0,.09,1.33Zm-.15-2.82c-1.1,0-2.35.17-2.35,1.24a.89.89,0,0,0,1,1,1.39,1.39,0,0,0,1.35-.92,1.25,1.25,0,0,0,0-.32Z"/><path class="cls-3" d="M103.78,169.16c0-.57,0-1,0-1.5h.9l.06.92h0a2,2,0,0,1,1.84-1c.77,0,2,.45,2,2.35v3.3h-1V170c0-.89-.33-1.63-1.29-1.63a1.43,1.43,0,0,0-1.35,1,1.29,1.29,0,0,0-.07.47v3.32h-1Z"/><path class="cls-3" d="M111.33,166.08v1.58h1.44v.77h-1.44v3c0,.68.19,1.07.75,1.07a2.48,2.48,0,0,0,.59-.07l0,.75a2.52,2.52,0,0,1-.9.14,1.41,1.41,0,0,1-1.09-.42,2,2,0,0,1-.39-1.44v-3h-.86v-.77h.86v-1.32Z"/><path class="cls-3" d="M116.34,169.47c0-.71,0-1.28,0-1.81h.91l0,1h0a2.18,2.18,0,0,1,2-1.07c1.35,0,2.36,1.13,2.36,2.81,0,2-1.22,3-2.53,3a1.94,1.94,0,0,1-1.71-.87h0v3h-1Zm1,1.47a2.55,2.55,0,0,0,0,.41,1.54,1.54,0,0,0,1.52,1.17c1.07,0,1.69-.86,1.69-2.13,0-1.11-.59-2-1.66-2a1.62,1.62,0,0,0-1.53,1.24,1.85,1.85,0,0,0-.07.41Z"/><path class="cls-3" d="M126,173.19l-.08-.7h0a2.07,2.07,0,0,1-1.7.82,1.58,1.58,0,0,1-1.7-1.58c0-1.34,1.2-2.07,3.35-2.06v-.11a1.15,1.15,0,0,0-1.27-1.28,2.78,2.78,0,0,0-1.44.41l-.23-.66a3.39,3.39,0,0,1,1.82-.49c1.7,0,2.12,1.15,2.12,2.26v2.06a7.73,7.73,0,0,0,.09,1.33Zm-.15-2.82c-1.1,0-2.36.17-2.36,1.24a.9.9,0,0,0,1,1,1.39,1.39,0,0,0,1.34-.92,1,1,0,0,0,.06-.32Z"/><path class="cls-3" d="M128.69,167.66l1.22,3.27c.13.36.26.8.36,1.13h0c.1-.33.22-.76.35-1.16l1.11-3.24h1.07l-1.52,3.94c-.72,1.9-1.22,2.87-1.91,3.46a2.82,2.82,0,0,1-1.24.65l-.25-.85a2.54,2.54,0,0,0,.88-.49,2.94,2.94,0,0,0,.85-1.11.72.72,0,0,0,.08-.24.81.81,0,0,0-.07-.27l-2-5.09Z"/><path class="cls-3" d="M138.65,170.38a2.71,2.71,0,0,1-2.77,2.93,2.63,2.63,0,0,1-2.66-2.84,2.7,2.7,0,0,1,2.75-2.93A2.62,2.62,0,0,1,138.65,170.38Zm-4.41.06c0,1.21.7,2.12,1.69,2.12s1.69-.9,1.69-2.15c0-.93-.47-2.12-1.67-2.12S134.24,169.39,134.24,170.44Z"/><path class="cls-3" d="M144.58,171.68c0,.57,0,1.07,0,1.51h-.89l-.06-.9h0a2.11,2.11,0,0,1-1.84,1c-.88,0-1.92-.48-1.92-2.42v-3.23h1v3.06c0,1.05.32,1.76,1.24,1.76a1.44,1.44,0,0,0,1.43-1.43v-3.39h1Z"/><path class="cls-3" d="M147.47,166.08v1.58h1.45v.77h-1.45v3c0,.68.2,1.07.76,1.07a2.55,2.55,0,0,0,.59-.07l0,.75a2.44,2.44,0,0,1-.9.14,1.41,1.41,0,0,1-1.09-.42,2.08,2.08,0,0,1-.39-1.44v-3h-.86v-.77h.86v-1.32Z"/><path class="cls-3" d="M149.92,172.16a2.68,2.68,0,0,0,1.33.4c.74,0,1.08-.37,1.08-.82s-.29-.74-1-1c-1-.35-1.47-.9-1.47-1.56a1.71,1.71,0,0,1,1.91-1.62,2.81,2.81,0,0,1,1.37.34l-.25.73a2.15,2.15,0,0,0-1.14-.32c-.6,0-.93.34-.93.75s.33.67,1.06.94c1,.37,1.46.84,1.46,1.67s-.76,1.65-2.08,1.65a3.19,3.19,0,0,1-1.57-.38Z"/><path class="cls-3" d="M158.16,166.11a.63.63,0,0,1-1.25,0,.62.62,0,0,1,.63-.63A.6.6,0,0,1,158.16,166.11ZM157,173.19v-5.53h1v5.53Z"/><path class="cls-3" d="M159.73,169.16c0-.57,0-1,0-1.5h.9l0,.92h0a2,2,0,0,1,1.83-1c.77,0,2,.45,2,2.35v3.3h-1V170c0-.89-.33-1.63-1.29-1.63a1.43,1.43,0,0,0-1.35,1,1.29,1.29,0,0,0-.07.47v3.32h-1Z"/><path class="cls-3" d="M172.58,169.58h-3v2.77h3.35v.84h-4.35v-7.7h4.18v.84h-3.18v2.43h3Z"/><path class="cls-3" d="M175.22,165.49v4.56c0,1.72.77,2.45,1.8,2.45s1.89-.75,1.89-2.45v-4.56h1V170c0,2.36-1.25,3.33-2.93,3.33s-2.78-.9-2.78-3.28v-4.54Z"/><path class="cls-3" d="M181.65,165.6a9.91,9.91,0,0,1,1.92-.16,3.19,3.19,0,0,1,2.24.62,1.93,1.93,0,0,1,.61,1.47,2,2,0,0,1-1.46,2v0a2,2,0,0,1,1.14,1.56,12.37,12.37,0,0,0,.59,2.11h-1a9.77,9.77,0,0,1-.52-1.84c-.23-1.06-.64-1.46-1.55-1.5h-.94v3.34h-1Zm1,3.5h1c1.07,0,1.75-.58,1.75-1.46s-.72-1.43-1.78-1.44a4.53,4.53,0,0,0-1,.09Z"/><path class="cls-3" d="M187,173.64l3.2-8.27h.78l-3.21,8.27Z"/><path class="cls-3" d="M192.77,165.49v4.56c0,1.72.77,2.45,1.8,2.45s1.89-.75,1.89-2.45v-4.56h1V170c0,2.36-1.25,3.33-2.93,3.33s-2.78-.9-2.78-3.28v-4.54Z"/><path class="cls-3" d="M199.06,172a3.62,3.62,0,0,0,1.79.5c1,0,1.62-.54,1.62-1.31s-.41-1.13-1.45-1.53c-1.27-.45-2.05-1.1-2.05-2.18a2.23,2.23,0,0,1,2.51-2.09,3.48,3.48,0,0,1,1.71.38l-.28.81a3,3,0,0,0-1.47-.37c-1.06,0-1.46.63-1.46,1.15,0,.72.47,1.08,1.54,1.49,1.31.5,2,1.13,2,2.26s-.89,2.21-2.71,2.21a4.06,4.06,0,0,1-2-.49Z"/><path class="cls-3" d="M204.86,165.6a14.7,14.7,0,0,1,2.13-.16,4.47,4.47,0,0,1,3.14,1,3.54,3.54,0,0,1,1.09,2.76,4,4,0,0,1-1.12,3,4.78,4.78,0,0,1-3.42,1.11,15.54,15.54,0,0,1-1.82-.1Zm1,6.8a7.11,7.11,0,0,0,1,.06,3,3,0,0,0,3.3-3.27c0-1.81-1-3-3.14-3a5.62,5.62,0,0,0-1.17.1Z"/><path class="cls-3" d="M211.85,172.59a.68.68,0,0,1,.69-.72.72.72,0,1,1-.69.72Z"/></g><g id="Слой_4" data-name="Слой 4"><line class="cls-5" x1="196.69" y1="156.64" x2="202.03" y2="156.64"/><image width="300" height="179" transform="translate(4.83 49.49) scale(0.12)" xlink:href="../../work/bg/iswipe illustration/iswipe Denis/woocommerce-logo-1E4D00A887-seeklogo.com.png"/><path class="cls-3" d="M49.86,59.28l1.9.58a3.55,3.55,0,0,1-.6,1.33,2.62,2.62,0,0,1-1,.81,3.8,3.8,0,0,1-1.55.28,4.56,4.56,0,0,1-1.87-.34,3,3,0,0,1-1.25-1.17,3.94,3.94,0,0,1-.53-2.14A3.65,3.65,0,0,1,45.86,56,3.54,3.54,0,0,1,48.48,55a3.65,3.65,0,0,1,2.09.53,3.16,3.16,0,0,1,1.12,1.65l-1.91.43a1.77,1.77,0,0,0-.21-.47,1.1,1.1,0,0,0-.45-.38,1.25,1.25,0,0,0-.59-.14,1.29,1.29,0,0,0-1.13.59,2.64,2.64,0,0,0-.29,1.39,2.7,2.7,0,0,0,.35,1.6,1.25,1.25,0,0,0,1,.43,1.22,1.22,0,0,0,.94-.35A2.2,2.2,0,0,0,49.86,59.28Z"/><path class="cls-3" d="M52.54,58.65A3.33,3.33,0,0,1,56.16,55a3.65,3.65,0,0,1,2.7.94,3.51,3.51,0,0,1,1,2.63,4.4,4.4,0,0,1-.41,2,3,3,0,0,1-1.2,1.23,4,4,0,0,1-2,.44,4.47,4.47,0,0,1-2-.38A3,3,0,0,1,53,60.7,4,4,0,0,1,52.54,58.65Zm2.17,0a2.38,2.38,0,0,0,.39,1.53,1.51,1.51,0,0,0,2.16,0,2.58,2.58,0,0,0,.38-1.63,2.15,2.15,0,0,0-.4-1.45,1.46,1.46,0,0,0-2.13,0A2.35,2.35,0,0,0,54.71,58.66Z"/><path class="cls-3" d="M61,55.14h2.85l1.1,4.27L66,55.14h2.85v7H67.07V56.8L65.7,62.16H64.1L62.73,56.8v5.36H61Z"/><path class="cls-3" d="M70.21,55.14h2.85l1.1,4.27,1.09-4.27H78.1v7H76.33V56.8L75,62.16H73.35L72,56.8v5.36H70.21Z"/><path class="cls-3" d="M79.48,55.14h5.81v1.5H81.65v1.11H85v1.43H81.65v1.39H85.4v1.59H79.48Z"/><path class="cls-3" d="M86.59,62.16v-7h3.62a5.37,5.37,0,0,1,1.53.17,1.67,1.67,0,0,1,.86.64,1.92,1.92,0,0,1,.33,1.14,2,2,0,0,1-.25,1,1.9,1.9,0,0,1-.69.69,2.53,2.53,0,0,1-.76.28,1.92,1.92,0,0,1,.57.26,1.86,1.86,0,0,1,.34.37,2.65,2.65,0,0,1,.31.43l1,2H91.05L89.89,60a1.54,1.54,0,0,0-.4-.54.88.88,0,0,0-.53-.16h-.19v2.85ZM88.77,58h.92a3.51,3.51,0,0,0,.57-.09.62.62,0,0,0,.35-.22.68.68,0,0,0,.14-.41.62.62,0,0,0-.22-.52,1.3,1.3,0,0,0-.81-.18h-1Z"/><path class="cls-3" d="M98.69,59.28l1.89.58a3.26,3.26,0,0,1-.6,1.33A2.52,2.52,0,0,1,99,62a3.84,3.84,0,0,1-1.55.28,4.5,4.5,0,0,1-1.87-.34,2.9,2.9,0,0,1-1.25-1.17,3.86,3.86,0,0,1-.53-2.14A3.65,3.65,0,0,1,94.69,56,3.52,3.52,0,0,1,97.31,55a3.6,3.6,0,0,1,2.08.53,3.17,3.17,0,0,1,1.13,1.65l-1.92.43a1.3,1.3,0,0,0-.21-.47,1.14,1.14,0,0,0-.44-.38,1.36,1.36,0,0,0-1.72.45,2.54,2.54,0,0,0-.3,1.39,2.61,2.61,0,0,0,.36,1.6,1.39,1.39,0,0,0,1.93.08A2.11,2.11,0,0,0,98.69,59.28Z"/><path class="cls-3" d="M101.63,55.14h5.81v1.5h-3.63v1.11h3.37v1.43h-3.37v1.39h3.74v1.59h-5.92Z"/></g></svg>